<svg width="48" height="48" viewBox="0 0 48 48" fill="none" xmlns="http://www.w3.org/2000/svg">
<path d="M24.0196 2.33093C12.3537 2.33093 2.34277 12.0615 2.34277 24.2189C2.34277 35.8849 12.0733 45.5117 24.0196 45.5117C35.9677 45.5117 45.6964 35.8791 45.6964 24.2189C45.6964 12.434 36.0503 2.33093 24.0196 2.33093ZM33.0436 9.25637C33.85 11.5105 33.7597 16.2759 31.0909 23.9175C29.9389 27.3255 28.7005 30.0231 27.5389 31.4938C24.8413 30.697 20.7517 29.2263 16.2493 26.0833C19.3924 17.1341 24.1578 10.0071 29.6644 6.86405C30.9297 6.23621 32.4004 7.51109 33.0436 9.25637ZM12.8643 27.3601C11.9043 30.816 11.7719 34.2029 12.129 37.9642C7.80517 34.8212 5.30149 29.7831 5.30149 24.1997C5.30149 23.0132 5.42437 21.8554 5.66629 20.7303C7.82053 23.2493 9.80578 25.4535 12.8643 27.3601ZM13.5556 24.338C10.6794 22.1857 8.52517 19.8625 6.77989 17.353C10.0074 10.5121 16.57 5.09573 25.4212 5.09573H26.0163C20.3523 9.12005 15.9863 16.7271 13.5556 24.3341V24.338ZM14.8228 38.8647C14.3639 35.6372 14.3754 32.1389 15.3603 29.0881C18.7683 31.1482 23.1613 32.905 26.3043 33.8881C23.5165 38.2119 19.9127 40.5236 18.2634 41.1668C16.8868 41.6161 15.2375 40.249 14.8228 38.8647ZM22.5047 42.457C24.7473 40.6196 27.0435 37.9681 29.3763 34.5601C32.1661 35.3665 34.8829 35.4106 38.2909 34.969C34.9732 39.5578 30.1117 42.0692 22.5047 42.457ZM40.2954 31.9949C37.2369 32.2733 34.04 32.5402 30.6243 31.9949C31.8992 30.0788 33.226 26.9338 34.4836 23.1034C36.2212 17.6967 36.8567 13.7876 35.9524 9.95717C40.2762 13.1847 42.7799 18.3956 42.7799 24.0749C42.7799 26.953 41.8852 29.6602 40.2954 31.9949Z" fill="#15A0FD"/>
<path opacity="0.1" d="M35.8652 43.7376L38.6435 43.4649L41.6656 40.6886" stroke="#15A0FD" stroke-width="0.1344" stroke-miterlimit="10"/>
<path opacity="0.1" d="M41.8176 39.7247L43.7376 37.8047L45.6346 34.1356" stroke="#15A0FD" stroke-width="0.1344" stroke-miterlimit="10"/>
<path opacity="0.1" d="M45.6572 32.0832L46.0297 30.1632" stroke="#15A0FD" stroke-width="0.1344" stroke-miterlimit="10"/>
<path opacity="0.1" d="M45.6389 17.6659L44.6789 14.7859L42.5631 10.7788L39.8789 7.68188" stroke="#15A0FD" stroke-width="0.1344" stroke-miterlimit="10"/>
<path opacity="0.1" d="M38.9184 6.33794L36.9984 4.60994L33.1584 2.68994" stroke="#15A0FD" stroke-width="0.1344" stroke-miterlimit="10"/>
<path opacity="0.1" d="M6.49341 40.6656L9.46365 43.273L12.6835 44.7553" stroke="#15A0FD" stroke-width="0.1344" stroke-miterlimit="10"/>
<path opacity="0.1" d="M2.63184 34.1376L4.35984 37.9776" stroke="#15A0FD" stroke-width="0.1344" stroke-miterlimit="10"/>
<path opacity="0.1" d="M2.44043 18.7795L3.20843 16.2835L5.12843 11.6755L7.43243 8.60352" stroke="#15A0FD" stroke-width="0.1344" stroke-miterlimit="10"/>
<path opacity="0.1" d="M8.96875 7.06752L11.2728 4.95552L15.4968 3.03552" stroke="#15A0FD" stroke-width="0.1344" stroke-miterlimit="10"/>
</svg>
