<svg width="121" height="20" viewBox="0 0 121 20" fill="none" xmlns="http://www.w3.org/2000/svg">
<path fill-rule="evenodd" clip-rule="evenodd" d="M14.3203 18.9822C12.7186 17.9739 11.5381 14.4948 11.5381 10.3601C11.5381 10.2084 11.5387 10.0586 11.5425 9.90942L11.5438 9.91134C7.08785 9.20782 3.86853 7.28035 3.78571 5.00016L3.77297 5.02704C2.68287 6.38863 2.06042 7.96274 2.06042 9.63992C2.06042 14.5754 7.45228 18.6192 14.2917 18.9771L14.3203 18.9822ZM0 9.99968C0 4.4778 6.84002 0 15.2773 0C23.7152 0 30.5552 4.4778 30.5552 9.99968C30.5552 15.5222 23.7152 20 15.2773 20C6.84002 20 0 15.5222 0 9.99968ZM15.2779 1.44288C16.907 1.44288 18.2927 3.926 18.8062 7.39045L18.8075 7.38469C21.9771 6.88922 24.1955 5.74592 24.1955 4.41507C24.1955 2.62971 20.2028 1.18362 15.2779 1.18362C10.3537 1.18362 6.36091 2.62971 6.36091 4.41507C6.36091 5.74592 8.57933 6.88858 11.7483 7.38469L11.7502 7.39045C12.2637 3.926 13.6495 1.44288 15.2779 1.44288ZM16.2642 18.9764C23.1035 18.6186 28.496 14.5748 28.496 9.63928C28.496 7.9621 27.8729 6.38799 26.7835 5.0264L26.7701 4.99952C26.6879 7.27971 23.4686 9.20718 19.012 9.9107L19.0139 9.90878C19.0171 10.0579 19.0184 10.2077 19.0184 10.3594C19.0184 14.4941 17.8372 17.9733 16.2361 18.9815L16.2642 18.9764ZM15.2779 7.64715C15.985 7.648 16.6918 7.61767 17.3963 7.55625L17.3957 7.55689C17.058 5.33687 16.2374 3.76916 15.2785 3.76916C14.3197 3.76916 13.4997 5.33687 13.1614 7.55689L13.1608 7.55625C13.8649 7.61736 14.5712 7.64769 15.2779 7.64715ZM15.2779 15.8704C16.5043 15.8704 17.5052 13.306 17.5581 10.0906L17.5645 10.0925C16.0435 10.2333 14.5129 10.2333 12.992 10.0925L12.9983 10.0906C13.0512 13.306 14.0515 15.8704 15.2779 15.8704ZM77.9581 9.99968C77.9581 5.77921 81.3641 2.35701 85.5646 2.35701C89.7669 2.35701 93.1723 5.77921 93.1723 9.99968C93.1723 14.2214 89.7663 17.6424 85.5646 17.6424C81.3641 17.6424 77.9581 14.2214 77.9581 9.99968ZM85.5646 14.8398C87.9104 14.8398 89.8128 12.6723 89.8128 9.99904C89.8128 7.32644 87.9104 5.15892 85.5646 5.15892C83.2187 5.15892 81.3176 7.32644 81.3176 9.99904C81.3176 12.6729 83.2194 14.8398 85.5646 14.8398ZM101.804 5.54108V17.2954H98.5979V5.54108H98.6094H94.1273V2.88384H106.274V5.54108H101.804ZM110.152 14.0531L110.149 14.0563L108.92 17.296H105.175L111.094 2.88384H115.083L121 17.296H117.257L116.027 14.0563L116.024 14.0531H110.152ZM113.088 11.6205H115.105L115.104 11.6212L113.102 6.34638H113.074L111.072 11.6212L111.071 11.6205H113.088ZM42.7227 5.54108V17.2954H39.5174V5.54108H39.5289H35.0462V2.88384H47.194V5.54108H42.7227ZM48.0139 9.99968C48.0139 5.77921 51.4199 2.35701 55.6216 2.35701C59.8228 2.35701 63.2287 5.77921 63.2287 9.99968C63.2287 14.2214 59.8228 17.6424 55.6216 17.6424C51.4199 17.6424 48.0139 14.2214 48.0139 9.99968ZM55.6216 14.8398C57.9669 14.8398 59.8693 12.6723 59.8693 9.99904C59.8693 7.32644 57.9669 5.15892 55.6216 5.15892C53.2758 5.15892 51.374 7.32644 51.374 9.99904C51.374 12.6729 53.2758 14.8398 55.6216 14.8398ZM70.5925 17.2954H72.2177V11.8234L77.8097 2.88384H74.0666L70.5925 8.94152L67.1196 2.88384H63.3766L68.9678 11.8234V17.2954H70.5925Z" fill="white"/>
</svg>
